<svg width="392" height="237" viewBox="0 0 392 237" fill="none" xmlns="http://www.w3.org/2000/svg">
<path opacity="0.8" d="M358.63 234.441C358.63 234.441 407.43 159.665 373.719 112.445C342.457 68.6578 293.098 94.255 234.84 78.7877C176.582 63.3205 125.387 -21.39 53.4809 11.4725C-50.4329 58.9635 28.6843 228.777 45.6035 236.619L358.63 234.441Z" fill="#FFDE82"/>
<path opacity="0.8" d="M309.553 60.7759C310.114 62.0775 310.55 63.3922 310.839 64.7146C315.761 87.1737 271.652 78.9477 260.67 76.8607C228.335 70.7141 199.72 53.1446 175.011 31.9665C169.307 27.0779 160.719 19.3857 166.577 11.517C170.429 6.342 178.908 4.44237 184.961 3.99142C217.938 1.53518 253.035 16.9262 280.4 34.1776C291.267 41.0268 304.26 48.5055 309.553 60.7759Z" fill="#FFDE82"/>
<path d="M164.187 77.0502L169.008 102.563L147.493 111.145L132.915 96.7687L128.057 45.7467L164.187 77.0502Z" fill="#FFBF9F"/>
<path opacity="0.4" fill-rule="evenodd" clip-rule="evenodd" d="M168.814 86.3058C168.814 86.3058 147.194 88.8432 141.474 73.5614C138.519 65.6682 138.386 63.7129 138.386 63.7129L171.358 72.7552L168.814 86.3058Z" fill="#966954"/>
<path fill-rule="evenodd" clip-rule="evenodd" d="M172.712 35.761C175.51 40.1467 176.899 49.7339 177.271 58.2398C177.665 67.2901 178.132 73.0511 175.084 76.4826C169.122 83.1918 154.891 89.2881 131.453 67.7873C124.576 61.4778 121.054 39.8538 136.824 30.9052C152.594 21.961 167.419 27.4671 172.712 35.761Z" fill="#FFBF9F"/>
<path fill-rule="evenodd" clip-rule="evenodd" d="M161.013 54.0832C160.35 54.0494 159.777 54.7081 159.734 55.5545C159.691 56.401 160.193 57.115 160.856 57.1492C161.519 57.1834 162.092 56.5242 162.135 55.6778C162.179 54.831 161.677 54.1169 161.013 54.0832Z" fill="#604549"/>
<path d="M172.812 52.5095C172.15 52.7079 171.696 53.5324 171.799 54.351C171.902 55.1697 172.522 55.6725 173.184 55.4742C173.847 55.2758 174.3 54.4514 174.198 53.6328C174.095 52.8141 173.475 52.3112 172.812 52.5095Z" fill="#604549"/>
<path d="M167.127 65.0104C167.041 65.0104 166.96 64.9594 166.925 64.8746C166.88 64.7631 166.934 64.6361 167.045 64.5908C169.544 63.5754 168.561 59.5109 167.843 56.5431C167.613 55.5909 167.414 54.7686 167.346 54.1411C167.128 52.1098 168.052 50.2737 170.02 48.8319C171.485 47.7576 172.99 47.2848 173.054 47.2653C173.169 47.2301 173.291 47.2942 173.326 47.4092C173.362 47.5242 173.297 47.6459 173.183 47.6816C173.124 47.7 167.292 49.5619 167.78 54.0947C167.844 54.6936 168.04 55.5029 168.267 56.4404C169.022 59.5624 170.057 63.8376 167.209 64.9944C167.182 65.0052 167.154 65.0103 167.127 65.0104Z" fill="#604549"/>
<path fill-rule="evenodd" clip-rule="evenodd" d="M131.009 30.1426C126.029 32.0645 122.046 35.94 119.995 40.871C117.945 45.802 118.004 51.3571 120.154 56.2447C123.834 64.6022 129.438 72.3421 136.834 68.3089C147.352 62.5733 145.633 38.8234 145.633 38.8234C145.633 38.8234 180.396 47.4359 183.404 33.2084C183.478 32.8499 183.334 32.4805 183.036 32.2677C182.737 32.0542 182.341 32.0378 182.026 32.225C181.445 32.5727 180.744 32.9058 179.992 33.0829C179.657 33.1627 179.304 33.0804 179.039 32.8614C178.774 32.6415 178.627 32.3096 178.644 31.9663C178.571 33.2016 178.606 32.7765 178.639 32.0817C178.977 25.3793 175.084 19.1831 168.9 16.5788C164.002 14.5154 157.315 12.84 149.901 14.1938C134.196 17.061 131.009 30.1426 131.009 30.1426Z" fill="#604549"/>
<path fill-rule="evenodd" clip-rule="evenodd" d="M147.684 58.8708C148.207 58.066 136.868 48.901 130.988 54.1519C124.681 59.7842 135.09 69.0215 138.389 69.1861L147.684 58.8708Z" fill="#FFBF9F"/>
<path d="M138.526 59.0023L138.266 58.8359L136.309 61.6533L136.57 61.8197L138.526 59.0023Z" fill="#4B3735"/>
<path d="M158.965 63.9313C155.56 63.9315 152.572 61.4269 152.07 57.9598C151.517 54.1554 154.163 50.6101 157.968 50.0583C161.773 49.5059 165.318 52.152 165.87 55.9565C166.423 59.7609 163.777 63.3061 159.972 63.8584C159.633 63.9074 159.297 63.9312 158.965 63.9313ZM157.999 50.274L158.03 50.4895C154.463 51.0071 151.982 54.3308 152.5 57.8978C152.972 61.1476 155.773 63.4959 158.965 63.496C159.277 63.4959 159.591 63.4734 159.908 63.4271C163.476 62.9094 165.956 59.5863 165.438 56.0188C164.92 52.4514 161.597 49.9713 158.03 50.489L157.999 50.274Z" fill="white"/>
<path d="M175.336 61.5548C173.844 61.5551 172.398 61.077 171.18 60.1687C169.688 59.0545 168.718 57.426 168.45 55.5829C167.898 51.7785 170.544 48.2331 174.349 47.6814C178.153 47.1289 181.699 49.7749 182.251 53.5793C182.803 57.3838 180.158 60.9292 176.352 61.4815C176.013 61.5309 175.673 61.5548 175.336 61.5548ZM175.355 48.044C175.043 48.0441 174.729 48.0663 174.411 48.1126C170.844 48.6303 168.364 51.9539 168.882 55.5209C169.133 57.2488 170.042 58.7756 171.441 59.8198C172.84 60.864 174.562 61.3013 176.29 61.0503C179.858 60.5327 182.338 57.2096 181.82 53.642C181.348 50.3922 178.547 48.0441 175.355 48.044Z" fill="white"/>
<path d="M165.658 56.2062C165.551 56.206 165.458 56.1281 165.443 56.0198C165.425 55.9005 165.508 55.7898 165.627 55.7725L168.638 55.3351C168.758 55.3178 168.868 55.4004 168.885 55.5197C168.902 55.6385 168.82 55.749 168.701 55.7664L165.689 56.2037C165.679 56.2056 165.668 56.2065 165.658 56.2062Z" fill="white"/>
<path d="M152.653 54.864C152.628 54.8639 152.603 54.86 152.579 54.851L145.048 52.1149C144.936 52.0738 144.877 51.9486 144.918 51.8357C144.959 51.7228 145.084 51.6646 145.197 51.7057L152.728 54.4417C152.84 54.4828 152.899 54.608 152.858 54.7208C152.826 54.809 152.742 54.8639 152.653 54.864Z" fill="white"/>
<path fill-rule="evenodd" clip-rule="evenodd" d="M201.272 102.703C194.48 98.4041 187.092 95.1251 179.352 92.9483C172.995 91.1696 166.41 89.3271 166.41 89.3271C166.41 89.3271 167.349 100.698 152.185 102.008C137.03 103.318 131.674 91.6756 131.674 91.6756C131.674 91.6756 79.9506 101.773 81.3055 132.516C82.6603 163.268 90.168 236.621 90.168 236.621H216.411L209.331 162.988L221.639 171.593L244.921 130.294C244.922 130.293 216.905 112.583 201.272 102.703Z" fill="#E9D3BF"/>
<path fill-rule="evenodd" clip-rule="evenodd" d="M229.702 215.489L202.328 231.047L108.092 234.434L98.3758 202.444L98.3748 202.442L95.9589 194.488L94.8865 190.962L94.1476 188.527L93.4375 186.188L139.294 172.898L139.328 173.012L140.517 176.955L140.523 176.976L143.307 186.212L148.552 203.616L229.702 215.489Z" fill="#FFBF9F"/>
<path fill-rule="evenodd" clip-rule="evenodd" d="M131.434 108.617L148.829 174.403L93.6821 191.219L81.2637 129.399L131.434 108.617Z" fill="#E9D3BF"/>
<path d="M93.8271 191.516L93.6992 191.099L143.324 175.765L135.068 144.52L135.489 144.408L143.852 176.058L93.8271 191.516Z" fill="#4B3735"/>
<path fill-rule="evenodd" clip-rule="evenodd" d="M296.303 183.073C294.918 186.343 292.853 189.23 290.291 191.569C287.728 193.909 284.665 195.7 281.286 196.781C274.517 198.941 267.144 198.052 261.098 194.34C251.438 188.414 239.552 181.911 231.095 177.402C224.672 173.977 220.225 171.702 220.225 171.702C220.225 171.702 241.587 134.912 242.472 134.064C242.541 133.997 242.97 134.136 243.703 134.446C249.158 136.763 271.449 148.668 287.219 157.181C296.479 162.17 300.423 173.392 296.303 183.073Z" fill="#FFBF9F"/>
<path d="M262.974 157.247C262.974 157.247 288.484 108.839 287.629 103.483C286.777 98.1355 281.83 89.7798 285.216 85.6749C288.593 81.575 291.511 89.3942 294.861 89.8707C297.576 90.2435 300.507 72.2576 307.757 67.3657C308.872 66.6158 310.318 66.6086 311.447 67.3358C312.576 68.0631 313.161 69.3914 312.951 70.7141C311.809 77.4792 309.384 90.2898 306.828 93.413C303.3 97.7014 308.771 80.9654 311.851 82.4126C312.463 82.702 321.778 84.5601 316.86 95.1444C316.86 95.1444 316.856 89.1981 320.717 90.901C326.869 93.6147 324.176 99.9406 319.742 111.21C315.294 122.474 320.5 97.8674 324.016 99.1292C330.439 101.428 326.923 109.343 319.266 132.457C310.659 158.435 300.105 187.883 284.201 195.557C259.632 207.415 262.974 157.247 262.974 157.247Z" fill="#FFBF9F"/>
<path d="M305.095 109.896C305.012 109.896 304.933 109.849 304.896 109.769L300.319 99.712C300.269 99.6025 300.317 99.4729 300.427 99.424C300.536 99.3737 300.666 99.4224 300.715 99.5323L305.204 109.393C306.219 108.947 310.92 106.902 313.975 105.836C314.089 105.796 314.213 105.856 314.253 105.97C314.292 106.083 314.233 106.208 314.118 106.247C310.709 107.436 305.237 109.853 305.182 109.877C305.153 109.89 305.123 109.895 305.095 109.896Z" fill="#604549"/>
<path d="M311.456 101.852C310.814 101.852 310.159 101.685 309.493 101.353C304.703 98.9719 306.916 93.9608 306.938 93.9102C306.987 93.8005 307.117 93.7522 307.226 93.8025C307.335 93.8527 307.384 93.9809 307.334 94.0912C307.328 94.103 306.801 95.2857 306.835 96.7218C306.879 98.6175 307.839 100.045 309.687 100.964C310.774 101.507 311.829 101.559 312.823 101.121C315.896 99.762 317.505 94.1823 317.521 94.1261C317.553 94.0103 317.674 93.9434 317.79 93.9759C317.906 94.0084 317.973 94.1296 317.94 94.2446C317.873 94.4818 316.26 100.077 312.999 101.518C312.497 101.74 311.982 101.852 311.456 101.852Z" fill="#604549"/>
<path d="M317.776 107.361C317.261 107.362 316.744 107.241 316.228 107C315.073 106.463 314.298 105.656 313.924 104.601C313.174 102.485 314.297 100.143 314.345 100.044C314.397 99.9361 314.528 99.8912 314.636 99.9434C314.744 99.9956 314.789 100.127 314.736 100.235C314.726 100.258 313.646 102.516 314.335 104.457C314.669 105.397 315.367 106.12 316.411 106.605C317.278 107.01 318.148 107.029 318.999 106.663C322.038 105.354 323.969 99.6242 323.988 99.5657C324.026 99.4511 324.149 99.3893 324.263 99.4281C324.377 99.466 324.439 99.589 324.402 99.7032C324.321 99.9463 322.39 105.676 319.172 107.063C318.711 107.262 318.245 107.362 317.776 107.361Z" fill="#604549"/>
<path d="M322.137 112.633C321.485 112.632 320.817 112.386 320.142 111.894C318.835 110.946 318.106 109.933 317.975 108.887C317.837 107.789 318.422 107.072 318.446 107.042C318.523 106.949 318.661 106.937 318.753 107.014C318.846 107.091 318.858 107.229 318.781 107.321C318.777 107.326 318.29 107.932 318.407 108.842C318.527 109.762 319.195 110.67 320.397 111.541C321.255 112.167 322.083 112.344 322.861 112.072C325.231 111.239 326.517 106.584 326.53 106.537C326.561 106.42 326.681 106.352 326.797 106.383C326.913 106.414 326.981 106.534 326.95 106.65C326.896 106.851 325.592 111.573 323.006 112.482C322.721 112.582 322.43 112.633 322.137 112.633Z" fill="#604549"/>
<path d="M306.383 96.7389C306.365 96.7392 306.345 96.7362 306.326 96.7313C306.209 96.6994 306.141 96.5803 306.173 96.4636L312.172 74.5079C312.204 74.3913 312.323 74.3241 312.439 74.3552C312.555 74.3862 312.623 74.5068 312.592 74.6228L306.594 96.5778C306.567 96.6756 306.479 96.7393 306.383 96.7389Z" fill="#604549"/>
<path opacity="0.4" fill-rule="evenodd" clip-rule="evenodd" d="M243.703 134.446L231.095 177.401C224.672 173.976 220.225 171.701 220.225 171.701C220.225 171.701 241.587 134.912 242.472 134.063C242.541 133.997 242.97 134.135 243.703 134.446Z" fill="#966954"/>
<path d="M208.553 141.525L208.119 141.562L216.191 236.634L216.625 236.597L208.553 141.525Z" fill="#4B3735"/>
<path fill-rule="evenodd" clip-rule="evenodd" d="M221.752 225.587C221.752 224.883 222.027 224.214 222.521 223.72C223.016 223.226 223.69 222.95 224.387 222.95C225.269 222.95 226.252 222.95 227.134 222.95C227.837 222.95 228.505 223.227 228.999 223.72C229.494 224.213 229.775 224.883 229.775 225.587C229.775 225.98 229.775 226.39 229.775 226.783C229.775 227.478 229.494 228.155 228.999 228.65C228.505 229.144 227.837 229.419 227.134 229.419C226.252 229.419 225.269 229.419 224.387 229.419C223.69 229.419 223.016 229.143 222.521 228.65C222.027 228.156 221.752 227.478 221.752 226.783V225.587Z" fill="#808080"/>
<path fill-rule="evenodd" clip-rule="evenodd" d="M211.049 225.587C211.049 224.883 211.325 224.214 211.818 223.72C212.313 223.226 212.987 222.95 213.684 222.95H216.431C217.134 222.95 217.802 223.227 218.296 223.72C218.791 224.213 219.072 224.883 219.072 225.587V226.783C219.072 227.478 218.791 228.155 218.296 228.65C217.802 229.144 217.134 229.419 216.431 229.419H213.684C212.987 229.419 212.313 229.143 211.818 228.65C211.324 228.156 211.049 227.478 211.049 226.783V225.587Z" fill="#808080"/>
<path fill-rule="evenodd" clip-rule="evenodd" d="M200.332 225.587C200.332 224.883 200.607 224.214 201.101 223.72C201.596 223.226 202.27 222.95 202.967 222.95C203.849 222.95 204.832 222.95 205.714 222.95C206.417 222.95 207.085 223.227 207.579 223.72C208.074 224.213 208.355 224.883 208.355 225.587C208.355 225.98 208.355 226.39 208.355 226.783C208.355 227.478 208.074 228.155 207.579 228.65C207.085 229.144 206.417 229.419 205.714 229.419C204.832 229.419 203.849 229.419 202.967 229.419C202.27 229.419 201.596 229.143 201.101 228.65C200.607 228.156 200.332 227.478 200.332 226.783C200.332 226.39 200.332 225.98 200.332 225.587Z" fill="#808080"/>
<path fill-rule="evenodd" clip-rule="evenodd" d="M189.615 225.587C189.615 224.883 189.89 224.214 190.385 223.72C190.879 223.226 191.553 222.95 192.25 222.95H194.997C195.7 222.95 196.368 223.227 196.863 223.72C197.357 224.213 197.638 224.883 197.638 225.587V226.783C197.638 227.478 197.357 228.155 196.863 228.65C196.368 229.144 195.7 229.419 194.997 229.419H192.25C191.554 229.419 190.879 229.143 190.385 228.65C189.89 228.156 189.615 227.478 189.615 226.783C189.615 226.39 189.615 225.98 189.615 225.587Z" fill="#808080"/>
<path fill-rule="evenodd" clip-rule="evenodd" d="M178.9 225.587C178.9 224.883 179.176 224.214 179.67 223.72C180.164 223.226 180.838 222.95 181.535 222.95C182.417 222.95 183.401 222.95 184.282 222.95C184.984 222.95 185.653 223.227 186.147 223.72C186.642 224.213 186.923 224.883 186.923 225.587C186.923 225.98 186.923 226.39 186.923 226.783C186.923 227.478 186.642 228.155 186.147 228.65C185.653 229.144 184.984 229.419 184.282 229.419C183.401 229.419 182.417 229.419 181.535 229.419C180.839 229.419 180.164 229.143 179.67 228.65C179.175 228.156 178.9 227.478 178.9 226.783C178.9 226.39 178.9 225.98 178.9 225.587Z" fill="#808080"/>
<path fill-rule="evenodd" clip-rule="evenodd" d="M168.189 225.587C168.189 224.883 168.465 224.214 168.959 223.72C169.453 223.226 170.127 222.95 170.824 222.95H173.572C174.274 222.95 174.942 223.227 175.437 223.72C175.931 224.213 176.212 224.883 176.212 225.587V226.783C176.212 227.478 175.931 228.155 175.437 228.65C174.942 229.144 174.274 229.419 173.572 229.419H170.824C170.128 229.419 169.453 229.143 168.959 228.65C168.464 228.156 168.189 227.478 168.189 226.783V225.587Z" fill="#808080"/>
<path fill-rule="evenodd" clip-rule="evenodd" d="M244.986 224.249H161.019C158.824 224.249 157.046 226.028 157.046 228.222C157.046 230.417 158.825 232.195 161.019 232.195H244.986V224.249Z" fill="#604549"/>
<path fill-rule="evenodd" clip-rule="evenodd" d="M337.813 168.342C338.303 166.12 337.755 163.8 336.328 162.028C334.901 160.256 332.747 159.231 330.478 159.231C307.034 159.231 246.121 159.231 226.689 159.231C223.159 159.231 220.104 161.691 219.355 165.142C216.567 177.908 209.982 207.589 206.661 222.828C206.179 225.049 206.726 227.369 208.152 229.135C209.578 230.907 211.725 231.938 214.002 231.938C237.445 231.938 298.352 231.938 317.783 231.938C321.32 231.938 324.374 229.471 325.124 226.021C327.907 213.255 334.499 183.574 337.813 168.342Z" fill="#604549"/>
<path fill-rule="evenodd" clip-rule="evenodd" d="M344.338 167.78C344.814 165.557 344.266 163.242 342.84 161.47C341.413 159.705 339.267 158.677 336.997 158.677C313.561 158.677 252.647 158.677 233.209 158.677C229.672 158.677 226.617 161.138 225.868 164.589C223.087 177.407 216.487 207.802 213.167 223.082C212.684 225.305 213.232 227.627 214.658 229.392C216.084 231.163 218.239 232.192 220.508 232.192C243.944 232.192 304.859 232.192 324.297 232.192C327.827 232.192 330.882 229.723 331.639 226.274C334.418 213.454 341.017 183.06 344.338 167.78Z" fill="white"/>
<path d="M282.19 194.625C282.167 191.982 284.384 189.821 287.142 189.798C289.9 189.776 292.155 191.9 292.178 194.544C292.202 197.187 289.985 199.347 287.226 199.37C284.468 199.392 282.213 197.268 282.19 194.625Z" fill="#F0EDE6"/>
<path d="M87.3037 65.2829H11.6365C10.9023 65.2829 10.2092 64.9951 9.6865 64.4739C9.17356 63.9625 8.87891 63.2537 8.87891 62.5284V16.8492C8.87891 15.3276 10.1162 14.0898 11.6365 14.0898H87.3037C88.822 14.0898 90.0564 15.3276 90.0564 16.8492V62.5284C90.0564 63.2537 89.7618 63.9625 89.2488 64.4739C88.7398 64.9873 88.0301 65.2829 87.3037 65.2829ZM11.6365 14.5254C10.3561 14.5254 9.31451 15.5677 9.31451 16.8492V62.5284C9.31451 63.138 9.56217 63.735 9.99387 64.1657C10.4354 64.6052 11.0188 64.8483 11.6365 64.8483H87.3037C87.9146 64.8483 88.5107 64.6003 88.9415 64.1667C89.3741 63.736 89.6218 63.139 89.6218 62.5294V16.8502C89.6218 15.5687 88.5822 14.5264 87.3047 14.5264H11.6365V14.5254Z" fill="#604549"/>
<path fill-rule="evenodd" clip-rule="evenodd" d="M45.5717 31.2592C45.5717 30.525 45.2801 29.8187 44.7621 29.3C44.2432 28.7764 43.5365 28.4854 42.8033 28.4854C38.5949 28.4854 30.6411 28.4854 26.4364 28.4854C25.7031 28.4854 24.9965 28.7752 24.4776 29.3C23.9587 29.8187 23.668 30.5237 23.668 31.2592C23.668 31.9935 23.9596 32.6936 24.4776 33.2124C24.9965 33.736 25.7031 34.027 26.4364 34.027C30.6402 34.027 38.5949 34.027 42.8033 34.027C43.5365 34.027 44.2432 33.7372 44.7621 33.2124C45.281 32.6936 45.5717 31.9935 45.5717 31.2592Z" fill="#E9D3BF"/>
<path fill-rule="evenodd" clip-rule="evenodd" d="M45.5717 39.4242C45.5717 38.69 45.2801 37.9837 44.7621 37.465C44.2432 36.9414 43.5365 36.6504 42.8033 36.6504C38.5949 36.6504 30.6411 36.6504 26.4364 36.6504C25.7031 36.6504 24.9965 36.9402 24.4776 37.465C23.9587 37.9837 23.668 38.6888 23.668 39.4242C23.668 40.1585 23.9596 40.8586 24.4776 41.3774C24.9965 41.901 25.7031 42.192 26.4364 42.192H42.8033C43.5365 42.192 44.2432 41.9022 44.7621 41.3774C45.281 40.8586 45.5717 40.1585 45.5717 39.4242Z" fill="#E9D3BF"/>
<path fill-rule="evenodd" clip-rule="evenodd" d="M45.5717 47.5903C45.5717 46.856 45.2801 46.1497 44.7621 45.631C44.2432 45.1074 43.5365 44.8164 42.8033 44.8164C38.5949 44.8164 30.6411 44.8164 26.4364 44.8164C25.7031 44.8164 24.9965 45.1062 24.4776 45.631C23.9587 46.1497 23.668 46.8548 23.668 47.5903C23.668 48.3245 23.9596 49.0247 24.4776 49.5434C24.9965 50.067 25.7031 50.358 26.4364 50.358C30.6402 50.358 38.5949 50.358 42.8033 50.358C43.5365 50.358 44.2432 50.0682 44.7621 49.5434C45.281 49.0259 45.5717 48.3245 45.5717 47.5903Z" fill="#E9D3BF"/>
<path fill-rule="evenodd" clip-rule="evenodd" d="M65.1889 28.5361C59.0293 28.5361 54.0332 33.5317 54.0332 39.6923C54.0332 45.8479 59.0343 50.8485 65.1889 50.8485C71.3485 50.8485 76.3446 45.8529 76.3446 39.6923H65.1889V28.5361Z" fill="#E9D3BF"/>
<path fill-rule="evenodd" clip-rule="evenodd" d="M76.3384 39.6869C76.3395 38.7176 76.2097 37.7501 75.9589 36.814C74.3658 30.8685 68.2413 27.3325 62.296 28.9256C56.3507 30.5186 52.8145 36.6433 54.4076 42.5888C56.0007 48.5342 62.1253 52.0706 68.0706 50.4775C69.9771 49.9666 71.717 48.9559 73.105 47.5525L65.1832 39.7014L76.3384 39.6869Z" fill="white"/>
<path d="M164.738 70.326C163.597 70.326 162.66 70.0548 161.943 69.5146C160.868 68.7042 160.704 67.5899 160.697 67.543C160.681 67.4243 160.764 67.3143 160.884 67.298C161.002 67.2816 161.112 67.3644 161.129 67.4831C161.146 67.6073 161.606 70.4154 165.893 69.8032C166.013 69.7858 166.123 69.8686 166.139 69.9884C166.157 70.1071 166.074 70.2182 165.954 70.2346C165.527 70.2955 165.122 70.326 164.738 70.326Z" fill="#604549"/>
<path fill-rule="evenodd" clip-rule="evenodd" d="M58.7896 181.251C58.7896 181.251 77.5172 156.68 53.6378 130.374C46.5213 122.531 38.4868 120.361 37.7482 123.266C37.3827 124.701 36.649 129.65 39.5999 139.162C43.1596 150.644 55.5969 174.728 58.7896 181.251Z" fill="#6DB39A"/>
<path fill-rule="evenodd" clip-rule="evenodd" d="M63.4934 179.683C63.4934 179.683 65.125 151.812 87.2673 144.319C87.5667 144.218 87.8962 144.328 88.0769 144.586C88.7652 145.574 89.9858 148.399 87.1904 153.936C83.5875 161.076 66.9106 176.267 63.4934 179.683Z" fill="#6DB39A"/>
<path fill-rule="evenodd" clip-rule="evenodd" d="M49.2066 179.379C49.2066 179.379 50.0349 166.603 41.4274 151.817C33.2416 137.751 24.6928 138.059 23.3225 138.14C20.2342 138.328 20.9292 154.755 28.3966 166.197C35.8612 177.643 49.2066 179.379 49.2066 179.379Z" fill="#6DB39A"/>
<path fill-rule="evenodd" clip-rule="evenodd" d="M68.2015 186.743C68.2015 186.743 71.9286 173.014 80.9929 168.528C90.0573 164.043 89.7262 164.78 89.6042 166.696C89.4821 168.615 89.0164 176.263 82.7602 182.005C76.5046 187.75 68.2015 186.743 68.2015 186.743Z" fill="#6DB39A"/>
<path fill-rule="evenodd" clip-rule="evenodd" d="M34.2925 187.319C34.2925 187.319 39.7423 208.789 20.2412 222.214C20.2412 222.214 11.9715 205.407 21.454 193.087C22.4638 191.774 25.6207 188.964 26.9871 188.293C30.9052 186.37 34.2925 187.319 34.2925 187.319Z" fill="#6DB39A"/>
<path d="M58.6764 214.076C58.6677 213.979 57.7593 204.26 53.1463 190.726C48.8906 178.239 40.522 159.859 24.8184 143.209L25.1353 142.91C32.0956 150.289 38.2128 158.62 43.317 167.671C47.3995 174.911 50.848 182.625 53.5646 190.599C58.1917 204.179 59.1023 213.941 59.111 214.038L58.6764 214.076Z" fill="#615F5D"/>
<path d="M19.9062 215.943C19.9062 215.911 19.915 212.696 21.3266 207.713C22.6261 203.121 25.4178 196.036 31.3324 188.35C33.9172 184.992 36.6915 183.506 39.5769 183.935C43.1017 184.459 46.7049 187.763 50.2864 193.756C52.9376 198.193 54.5878 202.535 54.6041 202.579L54.1967 202.733C54.1804 202.689 52.5411 198.378 49.9095 193.974C47.4968 189.937 43.7345 184.993 39.5137 184.366C36.7961 183.962 34.1601 185.392 31.6788 188.616C25.8121 196.238 23.0433 203.262 21.7525 207.812C20.3539 212.742 20.343 215.91 20.343 215.942L19.9062 215.943Z" fill="#615F5D"/>
<path d="M53.2949 210.62L52.8929 210.451C52.906 210.42 54.249 207.2 55.5953 201.078C56.8371 195.428 58.3359 186.082 58.423 173.636C58.5091 161.208 54.3765 149.678 50.8942 142.195C47.1178 134.08 43.2705 128.84 43.2324 128.789L43.5832 128.529C43.6213 128.582 47.4903 133.849 51.2852 142.002C53.5138 146.79 55.2827 151.623 56.543 156.368C58.1191 162.302 58.8979 168.114 58.8598 173.64C58.7737 186.132 57.2673 195.517 56.019 201.189C54.6629 207.343 53.3079 210.587 53.2949 210.62Z" fill="#615F5D"/>
<path d="M58.6759 200.668C58.6628 194.922 60.0603 188.568 62.8292 181.783C65.0414 176.363 68.1294 170.656 72.0071 164.821C78.6079 154.891 85.3035 147.936 85.3711 147.866L85.6837 148.169C85.6172 148.238 78.9445 155.17 72.3655 165.069C66.3028 174.192 59.0811 187.774 59.1105 200.667L58.6759 200.668Z" fill="#615F5D"/>
<path d="M63.2782 204.683C62.5898 200.096 63.4525 195.297 65.8412 190.42C67.7474 186.53 70.623 182.582 74.3907 178.685C80.7966 172.058 87.661 167.814 87.7296 167.772L87.9573 168.144C87.8886 168.185 81.0656 172.405 74.6979 178.994C68.8399 185.055 62.1781 194.421 63.7096 204.618L63.2782 204.683Z" fill="#615F5D"/>
<path d="M73.4565 190.986H40.3457V233.785H73.4565V190.986Z" fill="#C7C4BF"/>
<path fill-rule="evenodd" clip-rule="evenodd" d="M40.4297 195.879V202.446L73.4566 195.879H40.4297Z" fill="#A19E9A"/>
<path d="M55.8427 196.793L83.4688 195.238L57.9969 189.54L30.3709 191.094L55.8427 196.793Z" fill="#C7C4BF"/>
<path opacity="0.4" fill-rule="evenodd" clip-rule="evenodd" d="M140.818 176.929L140.74 176.976L98.5924 202.444L98.5913 202.442L96.1753 194.487L95.1035 190.961L140.733 176.955L140.818 176.929Z" fill="#966954"/>
<g clip-path="url(#clip0_1128_68362)">
<path d="M318.929 12.6416C305.623 12.6416 295.812 23.3869 295.812 36.6416C295.812 49.8963 306.6 60.6416 319.906 60.6416C333.212 60.6416 343.999 49.8963 343.999 36.6416C343.999 23.3869 332.237 12.6416 318.929 12.6416Z" fill="#FFC155"/>
<g opacity="0.3">
<path opacity="0.3" d="M318.929 12.6416C305.623 12.6416 295.812 23.3869 295.812 36.6416C295.812 49.8963 306.6 60.6416 319.906 60.6416C333.212 60.6416 343.999 49.8963 343.999 36.6416C343.999 23.3869 332.237 12.6416 318.929 12.6416Z" fill="#FFC155"/>
</g>
<g opacity="0.3">
<path opacity="0.3" d="M318.929 12.6416C305.623 12.6416 295.812 23.3869 295.812 36.6416C295.812 49.8963 306.6 60.6416 319.906 60.6416C333.212 60.6416 343.999 49.8963 343.999 36.6416C343.999 23.3869 332.237 12.6416 318.929 12.6416Z" fill="#FFC155"/>
</g>
<path d="M334.129 53.612C343.538 44.2395 343.538 29.0437 334.129 19.6712C324.72 10.2987 309.465 10.2987 300.056 19.6712C290.647 29.0437 290.647 44.2395 300.056 53.612C309.465 62.9845 324.72 62.9845 334.129 53.612Z" fill="#FFC155"/>
<path d="M318.275 51.7554H315.729V48.0634C313.654 48.006 311.482 47.3731 310.167 46.4366L310.094 46.3851L311.055 43.7128L311.18 43.796C312.665 44.7817 314.565 45.3466 316.396 45.3466C318.896 45.3466 320.642 43.9226 320.642 41.8844C320.642 40.0654 319.424 38.7984 316.571 37.6463C313.391 36.4039 310.447 34.7654 310.447 31.2176C310.447 28.1609 312.616 25.8215 315.984 25.2367V21.5283H318.492V25.0761C320.302 25.1511 321.843 25.5731 323.201 26.3665L323.287 26.4169L322.286 29.0493L322.166 28.9814C321.521 28.6145 320.011 27.7554 317.603 27.7554C314.82 27.7554 313.833 29.3845 313.833 30.7793C313.833 32.6604 315.276 33.5863 318.308 34.8357C322.343 36.4754 324.065 38.5066 324.065 41.6289C324.065 44.2742 322.272 47.2372 318.27 47.938V51.7554H318.275ZM315.964 51.521H318.039V47.74L318.138 47.7236C322.073 47.0766 323.834 44.1969 323.834 41.6289C323.834 38.6168 322.156 36.6501 318.223 35.0526C315.092 33.7621 313.602 32.794 313.602 30.7793C313.602 29.1572 314.84 27.521 317.608 27.521C319.94 27.521 321.449 28.3063 322.167 28.7106L323 26.5212C321.669 25.7641 320.155 25.3679 318.374 25.3082L318.259 25.3047V21.7651H316.222V25.4371L316.123 25.4535C312.819 25.9903 310.683 28.2535 310.683 31.2188C310.683 33.9719 312.415 35.771 316.659 37.4295C319.617 38.6238 320.879 39.9564 320.879 41.8856C320.879 44.0621 319.036 45.5822 316.397 45.5822C314.573 45.5822 312.679 45.0337 311.176 44.0738L310.376 46.2972C311.687 47.1973 313.821 47.7974 315.849 47.8314L315.964 47.8337V51.521Z" fill="#151E24"/>
<path d="M317.093 55.9082C306.428 55.9082 297.752 47.2655 297.752 36.6421C297.752 26.0187 306.428 17.376 317.093 17.376C327.758 17.376 336.434 26.0187 336.434 36.6421C336.434 47.2655 327.758 55.9082 317.093 55.9082ZM317.093 17.6104C306.558 17.6104 297.987 26.1476 297.987 36.6421C297.987 47.1366 306.558 55.6738 317.093 55.6738C327.628 55.6738 336.199 47.1366 336.199 36.6421C336.199 26.1476 327.628 17.6104 317.093 17.6104Z" fill="#151E24"/>
</g>
<defs>
<clipPath id="clip0_1128_68362">
<rect width="51" height="48" fill="white" transform="translate(293 12.6416)"/>
</clipPath>
</defs>
</svg>
