<svg width="111" height="24" viewBox="0 0 111 24" fill="none" xmlns="http://www.w3.org/2000/svg">
<path d="M45.139 4.35608H37.9879C37.9879 3.81603 37.548 3.3761 37.0079 3.3761H34.5989C34.3896 3.3761 34.2227 3.546 34.2227 3.75232V4.35608H27.0715C26.8652 4.35608 26.6953 4.52295 26.6953 4.7323V8.4611C26.6953 8.66741 26.8652 8.83731 27.0715 8.83731H28.5764C28.7857 8.83731 28.9526 8.66741 28.9526 8.4611V5.48473H43.2549V8.83731H43.6281C44.6688 8.83731 45.5153 7.99082 45.5153 6.95016V4.7323C45.5153 4.52295 45.3484 4.35608 45.139 4.35608Z" fill="#26272B"/>
<path d="M41.7496 8.82495H30.5359C30.3265 8.82495 30.1597 8.99182 30.1597 9.20117V11.8377C30.1597 12.0471 30.3265 12.2139 30.5359 12.2139H41.7496C41.9589 12.2139 42.1258 12.0471 42.1258 11.8377V9.20117C42.1288 8.99182 41.9589 8.82495 41.7496 8.82495ZM39.8715 11.0823H32.417V9.9536H39.8715V11.0823Z" fill="#26272B"/>
<path d="M42.1291 6.96508C42.1291 6.75877 41.9592 6.58887 41.7529 6.58887H30.4634C30.254 6.58887 30.0872 6.75877 30.0872 6.96508V7.3413C30.0872 7.55065 30.254 7.71752 30.4634 7.71752H41.7529C41.9623 7.71752 42.1291 7.54761 42.1291 7.3413V6.96508Z" fill="#26272B"/>
<path d="M44.387 13.3213H27.8274C27.6211 13.3213 27.4512 13.4912 27.4512 13.6975V20.3147C27.4512 20.524 27.6211 20.6909 27.8274 20.6909H42.8821C43.9228 20.6909 44.7632 19.8474 44.7632 18.8098V13.6975C44.7632 13.4912 44.5963 13.3213 44.387 13.3213ZM34.9785 19.5622H29.7085V17.5598H34.9785V19.5622ZM34.9785 16.4281H29.7085V14.4499H34.9785V16.4281ZM42.5059 19.5622H37.2358V17.5598H42.5059V19.5622ZM42.5059 16.4281H37.251H37.2358V14.4499H42.5059V16.4281Z" fill="#26272B"/>
<path d="M74.5055 13.9677H69.2415C69.0321 13.9677 68.8652 14.1376 68.8652 14.3439V20.3148C68.8652 20.5241 69.0351 20.691 69.2415 20.691H72.9884C74.0352 20.691 74.8817 19.8445 74.8817 18.7978V14.3439C74.8817 14.1376 74.7118 13.9677 74.5055 13.9677ZM72.6244 19.5624H71.1195V15.0993H72.6244V19.5624Z" fill="#26272B"/>
<path d="M74.5056 7.26526H69.2385C69.0322 7.26526 68.8623 7.43516 68.8623 7.64148V8.01163C68.8623 8.22097 69.0292 8.39088 69.2385 8.39088H74.5056C74.7119 8.39088 74.8818 8.22097 74.8818 8.01163V7.64148C74.8818 7.43213 74.7119 7.26526 74.5056 7.26526Z" fill="#26272B"/>
<path d="M71.6626 6.30962H73.1674C73.3738 6.30962 73.5437 6.14275 73.5437 5.9334V5.7817C73.5437 4.74104 72.7002 3.89758 71.6626 3.89758H70.1577C69.9514 3.89758 69.7815 4.06749 69.7815 4.2738V4.4255C69.7845 5.4692 70.6249 6.30962 71.6626 6.30962Z" fill="#26272B"/>
<path d="M74.5056 9.52588H69.2385C69.0322 9.52588 68.8623 9.69578 68.8623 9.9021V10.2722C68.8623 10.4816 69.0292 10.6515 69.2385 10.6515H74.5056C74.7119 10.6515 74.8818 10.4816 74.8818 10.2722V9.9021C74.8818 9.69275 74.7119 9.52588 74.5056 9.52588Z" fill="#26272B"/>
<path d="M74.5048 11.777H69.2378C69.0315 11.777 68.8616 11.9469 68.8616 12.1532V12.5233C68.8616 12.7327 69.0284 12.9026 69.2378 12.9026H74.5048C74.7111 12.9026 74.881 12.7327 74.881 12.5233V12.1532C74.881 11.9469 74.7111 11.777 74.5048 11.777Z" fill="#26272B"/>
<path d="M77.1359 15.9062C77.1359 16.1156 77.3028 16.2855 77.5121 16.2855H85.795C86.0013 16.2855 86.1712 16.1156 86.1712 15.9062V12.0682C86.6384 12.3898 87.139 12.6689 87.6609 12.9026V12.2108C87.6548 11.9499 87.5425 11.7011 87.3514 11.5221C86.332 10.5603 85.5249 9.37705 85.0061 8.04815H87.2846C87.491 8.04815 87.6609 7.87825 87.6609 7.6689V7.29875C87.6609 7.08941 87.494 6.92254 87.2846 6.92254H84.6481C84.5328 6.46744 84.4509 5.99717 84.4084 5.51779H87.2846C87.491 5.51779 87.6609 5.34789 87.6609 5.13854V4.76839C87.6609 4.56208 87.494 4.39218 87.2846 4.39218H84.369C84.372 4.3406 84.372 4.28599 84.372 4.23441C84.3659 4.03113 84.1991 3.86426 83.9928 3.86426H82.3908C82.1936 3.87336 82.0358 4.03416 82.0328 4.23441C82.0328 4.37397 82.0358 4.5105 82.0419 4.64703C82.1147 6.3218 82.6214 7.88432 83.4527 9.22535H79.8483C80.6796 7.88432 81.1863 6.32484 81.2591 4.64703C81.2652 4.5105 81.2682 4.37094 81.2682 4.23441C81.2652 4.03416 81.1074 3.87336 80.9102 3.86426H76.0164C75.81 3.86426 75.6401 4.03416 75.6401 4.24048V4.61062C75.6401 4.81997 75.807 4.98987 76.0164 4.98987H78.929C78.9017 5.65432 78.8076 6.30057 78.6529 6.9195H76.0164C75.81 6.9195 75.6401 7.08941 75.6401 7.29572V7.66587C75.6401 7.87522 75.807 8.04512 76.0164 8.04512H78.2949C77.7791 9.37401 76.9721 10.5603 75.9496 11.5191C75.7524 11.7041 75.6401 11.962 75.6401 12.2351V12.9026C76.165 12.6689 76.6656 12.3868 77.1359 12.0621V15.9062ZM83.9169 15.1568H79.3932V12.5992H83.9169V15.1568ZM84.2719 10.351C84.6147 10.7545 84.9879 11.1307 85.3914 11.4735H77.9126C78.3161 11.1307 78.6923 10.7575 79.0322 10.351H84.2719Z" fill="#26272B"/>
<path d="M87.291 19.5621H85.4615L86.5356 16.9255H84.8426C84.4512 16.9255 84.0962 17.1622 83.9476 17.5232L83.1071 19.5651H80.1884L79.348 17.5232C79.1963 17.1622 78.8444 16.9255 78.453 16.9255H76.76L77.834 19.5621H76.0076C75.8012 19.5621 75.6313 19.729 75.6313 19.9383V20.3145C75.6313 20.5239 75.7982 20.6907 76.0076 20.6907H87.291C87.4973 20.6907 87.6672 20.5208 87.6672 20.3145V19.9383C87.6672 19.732 87.5004 19.5621 87.291 19.5621Z" fill="#26272B"/>
<path d="M54.3903 13.6185C53.6924 15.2265 52.2847 18.7156 52.2847 18.7156H54.2416C54.5723 18.7156 54.721 18.4759 54.7695 18.3515L56.954 13.0693H55.2701C54.9364 13.0693 54.548 13.2574 54.3903 13.6185Z" fill="#26272B"/>
<path d="M49.6966 6.30046H51.2015C51.4078 6.30046 51.5777 6.13359 51.5777 5.92425V5.77255C51.5777 4.73188 50.7342 3.88843 49.6936 3.88843H48.1887C47.9794 3.88843 47.8125 4.05833 47.8125 4.26464V4.41331C47.8155 5.46004 48.659 6.30046 49.6966 6.30046Z" fill="#26272B"/>
<path d="M52.0329 19.5623C51.4929 19.5623 51.056 19.1254 51.056 18.5854V8.40929H51.6658C51.8751 8.40929 52.042 8.23939 52.042 8.03307V7.65686C52.042 7.45054 51.8721 7.28064 51.6658 7.28064H48.1858C47.9795 7.28064 47.8096 7.44751 47.8096 7.65686V8.03307C47.8096 8.24242 47.9795 8.40929 48.1858 8.40929H48.7987V18.5732V18.5763C48.8017 19.0283 48.4983 19.4106 48.0857 19.5259C47.9855 19.5532 47.8096 19.6655 47.8096 19.893V20.694C47.8096 20.694 48.4558 20.694 48.4771 20.694C49.0687 20.6727 49.5936 20.3815 49.9243 19.9385V19.9416C50.258 20.3815 50.7768 20.694 51.3685 20.694H65.604C66.138 20.694 66.5688 20.2632 66.5688 19.7292V19.5653H52.0329V19.5623Z" fill="#26272B"/>
<path d="M65.968 11.0759H60.5675V8.40298H63.4255C63.4255 8.40298 63.9383 9.63478 64.1052 10.0444C64.1537 10.1688 64.3054 10.4085 64.63 10.4085H66.59C66.59 10.4085 64.8424 6.00914 64.0991 4.38898C63.9292 4.01883 63.5348 3.85803 63.201 3.85803H55.6251C55.258 3.85803 54.8818 4.05524 54.721 4.43146C54.0262 6.05465 52.2847 10.4054 52.2847 10.4054H54.2416C54.5693 10.4054 54.7179 10.1657 54.7695 10.0413C54.9334 9.63175 55.4491 8.40601 55.4491 8.40601H58.3072V11.0729H52.9066C52.6973 11.0729 52.5304 11.2428 52.5304 11.4491V11.8253C52.5304 12.0316 52.6973 12.2016 52.9066 12.2016H58.3132V16.6373C58.3132 16.6373 58.3132 16.6403 58.3132 16.6433C58.3132 17.1106 57.9856 17.4989 57.5487 17.596C57.3818 17.6324 57.2574 17.7841 57.2574 17.9631V18.7156H58.3163H59.3721H59.5997C60.1367 18.7156 60.5736 18.2787 60.5736 17.7416V12.2046H65.9741C66.1835 12.2046 66.3503 12.0377 66.3503 11.8284V11.4522C66.3443 11.2458 66.1744 11.0759 65.968 11.0759ZM55.9103 7.27736C56.2258 6.51582 56.6142 5.57528 56.8569 4.98668H62.0238C62.2696 5.57528 62.6519 6.51886 62.9644 7.27736H55.9103Z" fill="#26272B"/>
<path d="M64.4629 13.6185C65.1274 15.1507 66.5685 18.7156 66.5685 18.7156H64.6116C64.2809 18.7156 64.1322 18.4759 64.0837 18.3515L61.8992 13.0693H63.583C63.9198 13.0693 64.3051 13.2574 64.4629 13.6185Z" fill="#26272B"/>
<path d="M108.371 14.2134H90.3191C90.1128 14.2134 89.9429 14.3833 89.9429 14.5896V14.9688C89.9429 15.1752 90.1128 15.3451 90.3191 15.3451H92.5643L90.3676 20.694H92.3519C92.6795 20.694 92.8282 20.4543 92.8798 20.3299L94.9217 15.3451H106.493V18.5793C106.493 19.1254 106.05 19.5654 105.507 19.5654H101.433V19.6412C101.433 20.2966 101.86 20.6971 102.449 20.6971H107.774C108.171 20.6971 108.751 20.3937 108.751 19.7201V14.5926C108.748 14.3802 108.581 14.2134 108.371 14.2134Z" fill="#26272B"/>
<path d="M97.4429 10.7484H101.251C103.162 12.678 105.817 13.8704 108.748 13.8613V13.5367C108.748 13.0755 108.42 12.675 107.968 12.5961C106.445 12.3261 105.052 11.6768 103.893 10.7484H108.368C108.575 10.7484 108.748 10.5785 108.748 10.3692V9.99902C108.748 9.79271 108.578 9.6228 108.371 9.6228H98.4138C98.8507 9.03724 99.23 8.40313 99.5364 7.73262H108.368C108.578 7.73262 108.748 7.56271 108.748 7.35337V6.98322C108.748 6.7769 108.578 6.607 108.371 6.607H106.7L107.634 4.32846H105.929C105.538 4.32846 105.186 4.56511 105.034 4.92616L104.342 6.61003H99.9733C100.268 5.7059 100.444 4.75019 100.48 3.75807C100.489 3.54265 100.316 3.36365 100.104 3.36365H98.5989C98.3865 3.36365 98.2136 3.53658 98.2166 3.74897V3.80358C98.2014 4.7866 98.0285 5.72714 97.7281 6.61003H94.3665L93.6626 4.92616C93.5109 4.56511 93.1589 4.32846 92.7675 4.32846H91.0746L92.009 6.607H90.3252C90.1188 6.607 89.9489 6.77387 89.9489 6.98322V7.35943C89.9489 7.56575 90.1188 7.73565 90.3252 7.73565H97.2518C96.9059 8.4183 96.4812 9.05544 95.9805 9.62584H90.3191C90.1128 9.62584 89.9429 9.79271 89.9429 10.0021V10.3783C89.9429 10.5846 90.1128 10.7545 90.3191 10.7545H94.8003C93.6444 11.6799 92.2609 12.3291 90.7439 12.5992C90.2827 12.6811 89.9459 13.0755 89.9459 13.5427V13.8674C92.8768 13.8734 95.5285 12.678 97.4429 10.7484Z" fill="#26272B"/>
<path d="M20.4662 2.25H3.57889C2.84467 2.25 2.25 2.84467 2.25 3.5789V20.4662C2.25 21.2004 2.84467 21.7951 3.57889 21.7951H20.4662C21.2004 21.7951 21.7951 21.2004 21.7951 20.4662V3.5789C21.7951 2.84467 21.2004 2.25 20.4662 2.25ZM15.2841 14.8472C15.2841 15.0899 15.0869 15.2871 14.8442 15.2871H12.4594C12.2167 15.2871 12.0195 15.0899 12.0195 14.8472V12.4625C12.0195 12.2197 12.2167 12.0225 12.4594 12.0225H13.6518H14.8442C15.0869 12.0225 15.2841 12.2197 15.2841 12.4625V14.8472ZM18.5396 8.33925C18.5396 8.58197 18.3424 8.77615 18.1027 8.77615H11.1943C9.85019 8.77615 8.76401 9.86536 8.76401 11.2064V18.1148C8.76401 18.3545 8.56984 18.5517 8.32712 18.5517H5.93632C5.6936 18.5517 5.49942 18.3545 5.49942 18.1148V10.3872C5.49942 7.69604 7.68087 5.51459 10.372 5.51459H14.0978H18.1027C18.3424 5.51459 18.5396 5.70877 18.5396 5.95149V8.33925Z" fill="#0052D9"/>
<path d="M15.2844 14.8471C15.2844 15.0898 15.0872 15.287 14.8444 15.287H12.4597C12.217 15.287 12.0198 15.0898 12.0198 14.8471V12.4593C12.0198 12.2166 12.217 12.0194 12.4597 12.0194H13.6521H14.8444C15.0872 12.0194 15.2844 12.2166 15.2844 12.4593V14.8471Z" fill="white"/>
<path d="M18.5399 8.33907C18.5399 8.58179 18.3427 8.77596 18.103 8.77596H11.1946C9.85052 8.77596 8.76435 9.86517 8.76435 11.2062V18.1146C8.76435 18.3543 8.57017 18.5515 8.32745 18.5515H5.93665C5.69393 18.5515 5.49976 18.3543 5.49976 18.1146V10.387C5.49976 7.69586 7.68121 5.5144 10.3724 5.5144H14.0981H18.103C18.3427 5.5144 18.5399 5.70858 18.5399 5.9513V8.33907Z" fill="white"/>
</svg>
