<svg id="HSBC_MASTERBRAND_TC_LOGO_WW_SML_CMYK" xmlns="http://www.w3.org/2000/svg" viewBox="0 0 765.48 425.27"><defs><style>.cls-1{fill:none;}.cls-2{fill:#fff;}.cls-3{fill:#db0011;}</style></defs><title>HSBC_MASTERBRAND_TC_LOGO_V2_RGB</title><rect class="cls-1" y="0.01" width="765.44" height="425.24"/><polygon class="cls-2" points="354.33 141.8 212.6 141.8 141.73 212.67 212.6 283.54 354.33 283.54 425.2 212.67 354.33 141.8"/><polygon class="cls-3" points="425.2 212.67 354.33 141.8 354.33 283.53 425.2 212.67"/><polygon class="cls-3" points="283.46 212.67 354.33 141.8 212.6 141.8 283.46 212.67"/><polygon class="cls-3" points="141.73 212.67 212.6 283.53 212.6 141.8 141.73 212.67"/><polygon class="cls-3" points="283.46 212.67 212.6 283.53 354.33 283.53 283.46 212.67"/><path d="M461.12,214l6.39-6.05a87.2,87.2,0,0,0-13-12.62l-5.71,6.12A99.23,99.23,0,0,1,461.12,214Z"/><path d="M457.53,252.84a149.78,149.78,0,0,0,11.08-29.58l-8-3.51a90,90,0,0,1-11.13,27.91Z"/><path d="M456.3,174.39l-5.37,6a81.09,81.09,0,0,1,12.54,11.95l6-6.38A79.75,79.75,0,0,0,456.3,174.39Z"/><polygon points="479.66 183.91 528.35 183.91 528.35 176.74 470.99 176.74 470.99 250.87 528.35 250.87 528.35 243.62 479.66 243.62 479.66 183.91"/><path d="M506.77,194.58H495.88l.25-.48a56.14,56.14,0,0,0,2.59-5.9l-7.3-2.84A72.46,72.46,0,0,1,481,204.94l3.19,8.58a17.54,17.54,0,0,0,2.41-3l.6-1v31.41h8.22v-2.11h30.23v-7.17H512.88v-5.48h10v-6.91h-10v-5.49h10v-6.91h-10v-5h12.74v-7.26H511.31l3.56-2.85a28.59,28.59,0,0,0-6.75-6.38l-5.7,4.79Zm-2.11,37.08h-9.27v-5.48h9.27Zm0-12.39h-9.27v-5.49h9.27Zm0-12.39h-9.27v-5h9.27Z"/><polygon points="596.76 200.78 602.56 200.78 602.56 195.54 596.76 195.54 596.76 191.82 601.51 191.82 601.51 186.66 596.76 186.66 596.76 183.29 602.56 183.29 602.56 178.06 596.76 178.06 596.76 174.63 589.5 174.63 589.5 178.06 583.62 178.06 583.62 183.29 589.5 183.29 589.5 186.66 584.67 186.66 584.67 191.82 589.5 191.82 589.5 195.54 583.62 195.54 583.62 200.78 589.5 200.78 589.5 204.5 580.95 204.5 580.95 174.28 573.69 174.28 573.69 204.5 565.13 204.5 565.13 200.78 571.01 200.78 571.01 195.54 565.13 195.54 565.13 191.82 569.96 191.82 569.96 186.66 565.13 186.66 565.13 183.29 571.01 183.29 571.01 178.06 565.13 178.06 565.13 174.63 557.87 174.63 557.87 178.06 552.07 178.06 552.07 183.29 557.87 183.29 557.87 186.66 553.12 186.66 553.12 191.82 557.87 191.82 557.87 195.54 552.07 195.54 552.07 200.78 557.87 200.78 557.87 204.5 549.4 204.5 549.4 177 541.78 177 541.78 210.36 612.85 210.36 612.85 177 605.24 177 605.24 204.5 596.76 204.5 596.76 200.78"/><rect x="538.71" y="214.08" width="77.21" height="5.94"/><path d="M596.12,244.5a42.61,42.61,0,0,0,3.05-5.14l.09-.17h8.49V223.75H546.88v15.44h8.46L559.2,245H538v5.85h78.27V245H595.75Zm-40.57-10.82v-4.43h43.53v4.43Zm34.27,6a29.57,29.57,0,0,1-3.47,5.24l-.1.12H569l-.09-.17c-.82-1.48-1.85-3.22-3.07-5.17l-.31-.5h24.5Z"/></svg>