<svg width="48" height="48" viewBox="0 0 48 48" fill="none" xmlns="http://www.w3.org/2000/svg">
<g clip-path="url(#clip0_16588_2198)">
<mask id="path-1-outside-1_16588_2198" maskUnits="userSpaceOnUse" x="-1.63647" y="-1.63892" width="51" height="51" fill="black">
<rect fill="white" x="-1.63647" y="-1.63892" width="51" height="51"/>
<path fill-rule="evenodd" clip-rule="evenodd" d="M-0.00191498 46.3611L-0.00191092 -0.00164056L11.196 -0.00163958L46.3635 7.62939e-05L-0.00191498 46.3611Z"/>
</mask>
<path d="M-0.00191498 46.3611L-1.09282 46.3611L-1.09282 48.9946L0.769436 47.1325L-0.00191498 46.3611ZM-0.00191092 -0.00164056L-0.00191083 -1.09255L-1.09282 -1.09255L-1.09282 -0.00164065L-0.00191092 -0.00164056ZM11.196 -0.00163958L11.196 -1.09255L11.196 -1.09255L11.196 -0.00163958ZM46.3635 7.62939e-05L47.1349 0.771504L48.9973 -1.09071L46.3636 -1.09083L46.3635 7.62939e-05ZM1.08899 46.3611L1.089 -0.00164046L-1.09282 -0.00164065L-1.09282 46.3611L1.08899 46.3611ZM-0.00191102 1.08927L11.196 1.08927L11.196 -1.09255L-0.00191083 -1.09255L-0.00191102 1.08927ZM11.1959 1.08927L46.3635 1.09098L46.3636 -1.09083L11.196 -1.09255L11.1959 1.08927ZM45.5922 -0.771351L-0.773266 45.5897L0.769436 47.1325L47.1349 0.771504L45.5922 -0.771351Z" fill="#DCDCDC" mask="url(#path-1-outside-1_16588_2198)"/>
<path fill-rule="evenodd" clip-rule="evenodd" d="M-0.000102758 9.89436e-05L-0.000106812 46.3636L46.3635 9.91821e-05L-0.000102758 9.89436e-05Z" fill="url(#paint0_linear_16588_2198)"/>
<path d="M11.0868 24.2702L9.67891 25.678L8.89332 24.8924L12.5491 21.2367L13.3347 22.0223L11.9112 23.4457L13.3035 24.838L15.077 23.0646L15.8703 23.8579L11.5146 28.2137L10.7212 27.4203L12.4791 25.6625L11.0868 24.2702ZM9.61669 21.4156C9.52335 22.4112 9.22778 23.4846 8.7222 24.6124L7.53214 24.4646C8.41107 22.6057 8.68331 20.98 8.35662 19.5644L5.87539 22.0456L5.09757 21.2678L8.55886 17.8065L9.19667 18.4443C9.44557 19.051 9.59335 19.6966 9.64002 20.3655C10.5967 20.1555 11.4679 20.0155 12.2535 19.9611L12.2535 21.1589C11.5146 21.1356 10.6356 21.2211 9.61669 21.4156ZM9.84226 26.6192L10.5967 27.3737C10.2389 28.5093 9.7178 29.6682 9.00999 30.8427L8.1155 30.166C8.89332 28.9371 9.4689 27.7548 9.84226 26.6192ZM3.0908 22.6523L4.17197 22.1779C4.72422 23.4457 5.10535 24.558 5.30758 25.5069C5.54092 25.2113 5.76649 24.9236 5.9765 24.6358C5.85205 24.2469 5.71982 23.8346 5.57204 23.3913L6.59876 22.9246C7.14323 24.7135 7.46991 26.0981 7.58658 27.0859C7.92105 26.5181 8.23217 25.9114 8.51997 25.2658L9.25111 25.9969C8.72998 27.1403 8.15439 28.1359 7.51658 28.9915L6.57542 28.4704C6.6532 28.2682 6.69987 28.0659 6.70765 27.8715C6.69987 27.4126 6.56764 26.7048 6.31096 25.7636C5.99984 26.1681 5.68093 26.5959 5.34647 27.0392L4.41309 26.4947C4.48309 26.3158 4.49087 26.1058 4.45198 25.8647C4.10974 24.8069 3.65083 23.7413 3.0908 22.6523ZM17.0682 10.6195L20.6928 14.2441L21.354 13.583L22.1318 14.3608L14.9836 21.5089L14.2058 20.7311L14.8981 20.0389L11.2734 16.4142L12.938 14.7497L11.989 13.8008L12.7591 13.0307L13.708 13.9797L14.6414 13.0463L13.6925 12.0973L14.4625 11.3273L15.4114 12.2762L17.0682 10.6195ZM15.6759 19.261L16.5626 18.3743L15.4503 17.2621L14.5636 18.1488L15.6759 19.261ZM17.3326 17.6043L18.266 16.6709L17.1537 15.5586L16.2204 16.492L17.3326 17.6043ZM19.0361 15.9009L19.915 15.0219L18.8027 13.9097L17.9238 14.7886L19.0361 15.9009ZM13.8247 17.4098L14.7114 16.5231L13.6847 15.4964L12.798 16.3831L13.8247 17.4098ZM14.4547 14.7264L15.4814 15.7531L16.4148 14.8197L15.3881 13.793L14.4547 14.7264ZM16.1581 13.0229L17.1849 14.0497L18.0638 13.1707L17.0371 12.144L16.1581 13.0229ZM19.7205 16.8498C20.9262 16.3131 22.1162 15.932 23.3063 15.6909L23.5552 16.8109C22.2484 17.0287 21.035 17.3865 19.9228 17.8765L19.7205 16.8498ZM17.4493 19.121L18.5383 19.1988C18.3905 20.4044 18.0171 21.6645 17.4104 22.9868L16.3059 22.5823C16.9437 21.3534 17.3249 20.1944 17.4493 19.121ZM19.3394 6.66818L20.1328 5.87481L22.1007 7.84268L22.4429 7.50044L23.244 8.3016L21.5329 10.0128L21.7818 10.2617C21.9918 10.4717 22.1862 10.6817 22.3729 10.884L23.8585 9.39832L26.6976 12.2374C26.3475 11.1251 25.5386 9.91168 24.2941 8.60495L21.2995 5.61035C22.5129 4.35028 23.4541 3.08244 24.123 1.79126L25.2353 2.12573C24.613 3.2769 23.773 4.42807 22.7307 5.56368L23.6952 6.52817L26.5187 3.70469L27.2109 4.39695C28.051 5.57923 28.611 6.74596 28.8677 7.90491C29.661 8.0138 30.4233 7.93602 31.1545 7.68712L31.4734 8.81496C30.6644 9.06386 29.8477 9.14942 29.0232 9.05608C29.0699 9.91168 28.9688 10.7439 28.7199 11.584L27.6076 11.234C27.841 10.425 27.9265 9.62389 27.8643 8.84607C26.7987 8.54272 25.7097 7.98269 24.5975 7.15043L24.4574 7.29043L25.033 7.86602C26.5187 9.41388 27.4598 10.8995 27.8565 12.3074L26.7209 12.2607L27.312 12.8518L26.5187 13.6452L23.8352 10.9617L23.104 11.6929C24.1308 12.9063 24.7919 13.9874 25.0875 14.9053L23.9363 14.983C23.5318 13.9563 22.544 12.6418 20.9806 11.0628L18.1105 8.1927L18.9116 7.39155L20.7317 9.21164L21.3073 8.63606L19.3394 6.66818ZM25.3286 6.41928C26.122 6.96375 26.892 7.36044 27.6465 7.61712C27.4132 6.79263 27.032 6.00703 26.5031 5.24477L25.3286 6.41928Z" fill="white"/>
</g>
<defs>
<linearGradient id="paint0_linear_16588_2198" x1="0.000231592" y1="-6.96127e-05" x2="23.1798" y2="23.1795" gradientUnits="userSpaceOnUse">
<stop stop-color="#3682FF"/>
<stop offset="1" stop-color="#0052D9"/>
</linearGradient>
<clipPath id="clip0_16588_2198">
<rect width="48" height="48" fill="white"/>
</clipPath>
</defs>
</svg>
