<svg width="111" height="24" viewBox="0 0 111 24" fill="none" xmlns="http://www.w3.org/2000/svg">
<g clip-path="url(#clip0_640_1636)">
<path d="M48.2261 4.06257H40.9037C40.9042 3.9302 40.8787 3.799 40.8286 3.67648C40.7785 3.55396 40.7049 3.44252 40.6118 3.34852C40.5187 3.25452 40.408 3.17979 40.2861 3.12862C40.1641 3.07745 40.0335 3.05084 39.9013 3.05029H37.4352C37.3843 3.05046 37.3342 3.06068 37.2873 3.08035C37.2404 3.10002 37.1978 3.12876 37.1619 3.16493C37.1261 3.20109 37.0978 3.24398 37.0785 3.29113C37.0592 3.33828 37.0495 3.38877 37.0497 3.43971V4.06257H29.7266C29.6758 4.06287 29.6255 4.07318 29.5786 4.09293C29.5318 4.11267 29.4894 4.14147 29.4537 4.17766C29.4179 4.21386 29.3894 4.25673 29.3702 4.30386C29.3511 4.35098 29.3415 4.40143 29.3418 4.45231V8.30576C29.3415 8.40836 29.3819 8.50692 29.454 8.57983C29.5261 8.65275 29.6241 8.69407 29.7266 8.69475H31.2686C31.3714 8.69445 31.4698 8.65331 31.5422 8.58037C31.6147 8.50742 31.6554 8.40865 31.6552 8.30576V5.23H46.2996V8.69475H46.6804C47.1949 8.69243 47.6871 8.48559 48.0493 8.11972C48.4116 7.75386 48.6141 7.25891 48.6119 6.74374V4.4523C48.6123 4.40131 48.6024 4.35075 48.5831 4.30353C48.5639 4.2563 48.5356 4.21336 48.4997 4.17714C48.4639 4.14092 48.4213 4.11215 48.3744 4.09249C48.3274 4.07283 48.277 4.06267 48.2261 4.06257Z" fill="#0F1112"/>
<path d="M33.2744 8.68262C33.2235 8.68251 33.1732 8.6925 33.1261 8.71202C33.0791 8.73154 33.0363 8.7602 33.0004 8.79634C32.9645 8.83248 32.9359 8.87538 32.9166 8.92257C32.8974 8.96976 32.8878 9.0203 32.8882 9.07127V11.7951C32.8879 11.846 32.8977 11.8965 32.917 11.9436C32.9363 11.9908 32.9645 12.0336 33.0004 12.0697C33.0363 12.1058 33.0792 12.1344 33.1261 12.1539C33.1731 12.1734 33.2236 12.1835 33.2744 12.1834H44.7572C44.8081 12.1834 44.8582 12.1733 44.9052 12.1537C44.9521 12.1342 44.9946 12.1056 45.0305 12.0695C45.0664 12.0334 45.095 11.9906 45.1143 11.9435C45.1336 11.8965 45.1433 11.846 45.1431 11.7951V9.07127C45.1434 9.02032 45.1336 8.96983 45.1143 8.92268C45.095 8.87553 45.0668 8.83266 45.0309 8.79654C44.995 8.76043 44.9521 8.73177 44.9052 8.71222C44.8582 8.69266 44.8081 8.68261 44.7572 8.68262H33.2744ZM42.8315 11.0167H35.1987V9.84855H42.8315V11.0167Z" fill="#0F1112"/>
<path d="M45.1438 6.76136C45.1439 6.71043 45.134 6.65999 45.1146 6.6129C45.0953 6.5658 45.0671 6.52299 45.0312 6.48691C44.9953 6.45082 44.9524 6.42216 44.9055 6.40257C44.8585 6.38298 44.8084 6.37285 44.7576 6.37274H33.1972C33.1464 6.37293 33.0961 6.38314 33.0492 6.40277C33.0024 6.42241 32.96 6.45109 32.9242 6.48718C32.8885 6.52327 32.8604 6.56606 32.8412 6.6131C32.8219 6.66015 32.8118 6.71052 32.812 6.76136V7.15114C32.8117 7.20201 32.8216 7.25244 32.8408 7.29954C32.86 7.34664 32.8885 7.38949 32.9242 7.42562C32.96 7.46176 33.0024 7.49048 33.0492 7.51013C33.0961 7.52979 33.1464 7.54 33.1972 7.54018H44.7576C44.8085 7.54009 44.8589 7.52995 44.9059 7.51034C44.9528 7.49073 44.9953 7.46204 45.0312 7.42591C45.0671 7.38977 45.0957 7.34691 45.115 7.29976C45.1343 7.25261 45.144 7.2021 45.1438 7.15114V6.76136Z" fill="#0F1112"/>
<path d="M47.4546 13.3309H30.4971C30.3946 13.3315 30.2963 13.3728 30.2242 13.4458C30.152 13.5187 30.112 13.6173 30.1123 13.72V20.5601C30.1121 20.611 30.1215 20.6614 30.1407 20.7085C30.1599 20.7555 30.1884 20.7984 30.2242 20.8345C30.2599 20.8706 30.3023 20.8993 30.3492 20.919C30.396 20.9387 30.4463 20.9489 30.4971 20.9491V20.9499L45.914 20.9491C46.427 20.9469 46.918 20.7408 47.2793 20.3762C47.6406 20.0115 47.8427 19.5181 47.8408 19.0044V13.72C47.841 13.669 47.8309 13.6185 47.8116 13.5714C47.7923 13.5243 47.7641 13.4814 47.7282 13.4453C47.6923 13.4092 47.6498 13.3805 47.6029 13.3608C47.5559 13.3412 47.5054 13.3311 47.4546 13.3309ZM37.8217 19.7813H32.4257V17.7101H37.8217V19.7813ZM37.8217 16.5427H32.4257V14.498H37.8217V16.5427ZM45.5274 19.7813H40.1329V17.7101H45.5274V19.7813ZM45.5274 16.5427H40.1329V14.498H45.5274V16.5427Z" fill="#0F1112"/>
<path d="M58.0893 18.5311L60.3251 13.0713H58.5998C58.4116 13.0703 58.2272 13.1231 58.0678 13.2234C57.9085 13.3238 57.7808 13.4676 57.7002 13.6379C56.9852 15.3017 55.5449 18.908 55.5449 18.908H57.5475C57.6656 18.9089 57.781 18.8731 57.878 18.8056C57.975 18.7381 58.0489 18.6423 58.0893 18.5311Z" fill="#0F1112"/>
<path d="M52.8938 6.07465H54.4359C54.4865 6.07446 54.5367 6.06428 54.5834 6.04468C54.6302 6.02509 54.6727 5.99645 54.7084 5.96043C54.7441 5.9244 54.7723 5.88169 54.7915 5.83473C54.8107 5.78777 54.8205 5.73749 54.8203 5.68675V5.53049C54.8223 5.01648 54.6206 4.5227 54.2591 4.15773C53.8977 3.79276 53.4061 3.58649 52.8928 3.58429H51.3526C51.2498 3.58476 51.1513 3.62608 51.0789 3.69916C51.0065 3.77224 50.966 3.87111 50.9663 3.97405V4.12884C50.9643 4.6428 51.1663 5.13654 51.5278 5.50145C51.8893 5.86635 52.3806 6.07253 52.8938 6.07465Z" fill="#0F1112"/>
<path d="M54.2812 18.771V8.25142H54.9054C54.9563 8.25122 55.0067 8.24098 55.0537 8.22127C55.1006 8.20157 55.1432 8.1728 55.179 8.13661C55.2149 8.10041 55.2435 8.0575 55.2628 8.01032C55.2821 7.96314 55.2918 7.91262 55.2916 7.86164V7.47301C55.2918 7.4221 55.2818 7.37166 55.2625 7.32456C55.2431 7.27747 55.2149 7.23466 55.179 7.19856C55.1432 7.16247 55.1006 7.1338 55.0537 7.1142C55.0067 7.0946 54.9562 7.08446 54.9054 7.08435H51.3429C51.2405 7.08479 51.1425 7.12594 51.0704 7.19876C50.9982 7.27157 50.9581 7.37008 50.9585 7.47264V7.86276C50.9581 7.96546 50.9985 8.0641 51.0707 8.13698C51.143 8.20987 51.2411 8.25103 51.3436 8.25142H51.9704V18.7615C51.9721 18.9825 51.9015 19.1981 51.7696 19.3753C51.6377 19.5525 51.4515 19.6817 51.2394 19.7432C51.1581 19.7674 51.0868 19.8173 51.0361 19.8854C50.9854 19.9536 50.9584 20.0363 50.9585 20.1212V20.9493C50.9585 20.9493 51.6198 20.9504 51.6428 20.9493C51.9327 20.9391 52.2168 20.8636 52.4736 20.7284C52.7303 20.5931 52.9531 20.4017 53.1258 20.1683V20.1727C53.295 20.4082 53.517 20.6011 53.7736 20.7359C54.0303 20.8707 54.3147 20.9437 54.6044 20.9493H69.18C69.4429 20.9482 69.6948 20.8425 69.8799 20.6556C70.0651 20.4687 70.1684 20.2158 70.1674 19.9525V19.7822H55.2829C55.1508 19.7817 55.0203 19.7551 54.8984 19.704C54.7766 19.6529 54.6661 19.5783 54.5731 19.4844C54.48 19.3905 54.4063 19.2792 54.3563 19.1568C54.3062 19.0344 54.2806 18.9033 54.2812 18.771Z" fill="#0F1112"/>
<path d="M66.722 3.54702H58.9631C58.7677 3.54409 58.5759 3.59885 58.4114 3.70446C58.247 3.81006 58.1172 3.96184 58.0383 4.14083C57.3263 5.819 55.5449 10.3177 55.5449 10.3177H57.549C57.6667 10.3178 57.7817 10.2818 57.8784 10.2146C57.975 10.1473 58.049 10.052 58.0901 9.94157C58.2591 9.51796 58.7853 8.25089 58.7853 8.25089H61.7104V11.0086H56.1815C56.0786 11.009 55.9799 11.0503 55.9075 11.1234C55.835 11.1965 55.7945 11.2954 55.7949 11.3984V11.7866C55.7947 11.8375 55.8044 11.8879 55.8237 11.9349C55.8429 11.9819 55.8714 12.0248 55.9071 12.0608C55.9429 12.0969 55.9853 12.1256 56.0321 12.1453C56.0789 12.1649 56.1293 12.1751 56.18 12.1753H61.7148V16.7589H61.7145L61.7148 16.7656C61.7154 16.9945 61.6379 17.2167 61.4955 17.3957C61.353 17.5747 61.154 17.6998 60.9311 17.7502V17.751C60.8457 17.7707 60.7694 17.8189 60.715 17.8877C60.6605 17.9564 60.631 18.0416 60.6312 18.1293V18.9081H63.0287C63.1602 18.9076 63.2904 18.8811 63.4117 18.8303C63.5329 18.7794 63.643 18.7052 63.7356 18.6117C63.8282 18.5182 63.9015 18.4074 63.9513 18.2856C64.0011 18.1638 64.0262 18.0334 64.0257 17.9017V12.1753H69.5557C69.6582 12.1748 69.7561 12.1336 69.8283 12.0607C69.9005 11.9878 69.9408 11.8893 69.9405 11.7866V11.3976C69.9405 11.2949 69.9002 11.1963 69.8279 11.1235C69.7556 11.0506 69.6576 11.0093 69.555 11.0086H64.0257V8.24536L66.9512 8.24466C66.9512 8.24466 67.4782 9.51792 67.6472 9.94153C67.6875 10.052 67.7607 10.1474 67.857 10.2146C67.9534 10.2819 68.0682 10.3179 68.1857 10.3177H70.1916C70.1916 10.3177 68.4011 5.76969 67.642 4.09484C67.5566 3.9254 67.4246 3.78388 67.2616 3.68685C67.0987 3.58983 66.9115 3.54132 66.722 3.54702ZM59.2564 7.0831C59.5788 6.29665 59.9772 5.32445 60.2267 4.71522H65.5174C65.7687 5.32445 66.1607 6.29774 66.4823 7.08423L59.2564 7.0831Z" fill="#0F1112"/>
<path d="M68.1668 18.908H70.1697C70.1697 18.908 68.6959 15.2219 68.0141 13.6379C67.9334 13.4676 67.8061 13.3238 67.6468 13.2235C67.4875 13.1231 67.3027 13.0703 67.1145 13.0713H65.3892L67.6253 18.5311C67.6657 18.6423 67.7393 18.7382 67.8363 18.8056C67.9333 18.8731 68.0487 18.9089 68.1668 18.908Z" fill="#0F1112"/>
<path d="M90.2127 13.3382H82.578V8.25812H89.2872C89.3381 8.25803 89.3885 8.24789 89.4355 8.22828C89.4824 8.20868 89.5253 8.17999 89.5612 8.14385C89.5971 8.10772 89.6253 8.06484 89.6446 8.01769C89.6639 7.97054 89.6739 7.92005 89.6738 7.86908V7.4793C89.6739 7.42838 89.664 7.37792 89.6446 7.33083C89.6252 7.28374 89.5967 7.24092 89.5608 7.20483C89.5249 7.16874 89.4824 7.14009 89.4355 7.1205C89.3885 7.10091 89.338 7.09078 89.2872 7.09067H82.578V3.45953C82.578 3.35297 82.5355 3.25078 82.4603 3.17543C82.3851 3.10008 82.2832 3.05774 82.1768 3.05774H80.6639C80.5575 3.05774 80.4554 3.10008 80.3801 3.17543C80.3049 3.25078 80.2624 3.35296 80.2624 3.45953V7.09067H75.7377L76.5739 4.06896H74.8482C74.6792 4.06942 74.5151 4.12647 74.3822 4.23104C74.2493 4.3356 74.1549 4.48168 74.1144 4.64604L72.0287 12.1835H73.7544C73.9234 12.183 74.0875 12.126 74.2204 12.0214C74.3533 11.9168 74.4478 11.7708 74.4882 11.6064L75.4148 8.25809H80.2624V13.3382H72.2007C72.1499 13.3384 72.1 13.3486 72.0531 13.3682C72.0063 13.3878 71.9635 13.4165 71.9278 13.4526C71.892 13.4887 71.8639 13.5315 71.8447 13.5786C71.8255 13.6256 71.8157 13.676 71.8159 13.7268V14.1166C71.8156 14.1674 71.8251 14.2179 71.8443 14.265C71.8635 14.3121 71.892 14.3549 71.9278 14.391C71.9635 14.4272 72.0059 14.4559 72.0528 14.4755C72.0996 14.4952 72.1499 14.5054 72.2007 14.5056H80.2624V20.5478C80.2624 20.6543 80.3049 20.7565 80.3801 20.8319C80.4554 20.9072 80.5575 20.9496 80.6639 20.9496H82.1768C82.2832 20.9496 82.3851 20.9072 82.4603 20.8319C82.5355 20.7565 82.578 20.6543 82.578 20.5478V14.5056H90.2127C90.2636 14.5055 90.314 14.4954 90.361 14.4758C90.4079 14.4562 90.4504 14.4275 90.4863 14.3913C90.5222 14.3552 90.5508 14.3123 90.5701 14.2652C90.5894 14.218 90.5994 14.1675 90.5993 14.1166V13.7268C90.5994 13.6759 90.5895 13.6254 90.5701 13.5783C90.5508 13.5312 90.5222 13.4884 90.4863 13.4523C90.4504 13.4162 90.4079 13.3876 90.361 13.368C90.314 13.3484 90.2635 13.3383 90.2127 13.3382Z" fill="#0F1112"/>
<path d="M110.614 13.338H102.979V8.258H109.688C109.739 8.25791 109.789 8.24777 109.836 8.22816C109.883 8.20855 109.926 8.17987 109.962 8.14373C109.998 8.1076 110.026 8.06472 110.045 8.01757C110.065 7.97042 110.075 7.91993 110.075 7.86896V7.47918C110.075 7.42825 110.065 7.3778 110.045 7.33071C110.026 7.28361 109.998 7.24079 109.962 7.20471C109.926 7.16862 109.883 7.13997 109.836 7.12038C109.789 7.10079 109.739 7.09066 109.688 7.09055H102.979V3.4594C102.979 3.40664 102.968 3.35439 102.948 3.30564C102.928 3.25689 102.898 3.2126 102.861 3.17529C102.824 3.13799 102.78 3.10839 102.731 3.0882C102.682 3.06801 102.63 3.05761 102.577 3.05762H101.064C101.012 3.05761 100.96 3.06801 100.911 3.0882C100.862 3.10839 100.818 3.13799 100.781 3.17529C100.744 3.2126 100.714 3.25689 100.694 3.30564C100.674 3.35439 100.663 3.40664 100.663 3.4594V7.09055H96.1385L96.9748 4.06884H95.2487C95.0797 4.0693 94.9156 4.12635 94.7827 4.23091C94.6498 4.33548 94.5557 4.48156 94.5153 4.64591L92.4296 12.1834H94.1553C94.3243 12.1829 94.4883 12.1259 94.6213 12.0213C94.7542 11.9167 94.8486 11.7706 94.8891 11.6063L95.8157 8.25796H100.663V13.338H92.6016C92.5508 13.3382 92.5005 13.3484 92.4536 13.3681C92.4068 13.3877 92.3644 13.4164 92.3287 13.4525C92.2929 13.4886 92.2648 13.5314 92.2456 13.5784C92.2264 13.6255 92.2166 13.6759 92.2168 13.7267V14.1164C92.2165 14.1673 92.226 14.2177 92.2452 14.2648C92.2644 14.3119 92.2929 14.3548 92.3287 14.3909C92.3644 14.4271 92.4068 14.4558 92.4536 14.4754C92.5005 14.4951 92.5508 14.5053 92.6016 14.5054H100.663V20.5476C100.663 20.6004 100.674 20.6527 100.694 20.7014C100.714 20.7502 100.744 20.7945 100.781 20.8318C100.818 20.8691 100.862 20.8987 100.911 20.9189C100.96 20.939 101.012 20.9494 101.064 20.9494H102.577C102.63 20.9494 102.682 20.9391 102.731 20.9189C102.78 20.8987 102.824 20.8691 102.861 20.8318C102.898 20.7945 102.928 20.7502 102.948 20.7014C102.968 20.6527 102.979 20.6004 102.979 20.5476V14.5054H110.614C110.664 14.5054 110.715 14.4952 110.762 14.4756C110.809 14.456 110.851 14.4273 110.887 14.3912C110.923 14.3551 110.952 14.3122 110.971 14.2651C110.99 14.2179 111 14.1674 111 14.1164V13.7267C111 13.6758 110.99 13.6253 110.971 13.5782C110.951 13.5311 110.923 13.4883 110.887 13.4522C110.851 13.4161 110.808 13.3875 110.761 13.3679C110.715 13.3483 110.664 13.3381 110.614 13.338Z" fill="#0F1112"/>
<path d="M10.0945 14.472C9.63032 14.472 9.18503 14.2874 8.85677 13.9587C8.52851 13.63 8.34411 13.1842 8.3441 12.7194C8.34412 12.2545 8.52851 11.8088 8.85677 11.4801C9.18503 11.1514 9.63032 10.9667 10.0945 10.9668C10.5588 10.9667 11.004 11.1514 11.3323 11.4801C11.6606 11.8088 11.845 12.2545 11.845 12.7194C11.845 12.9495 11.7996 13.1775 11.7116 13.3901C11.6236 13.6027 11.4948 13.796 11.3323 13.9587C11.1698 14.1215 10.9766 14.2505 10.7643 14.3386C10.5519 14.4267 10.3244 14.472 10.0945 14.472ZM23.968 12C23.968 15.1826 22.7054 18.2349 20.458 20.4853C18.2105 22.7357 15.1625 24 11.9842 24C11.6184 24 11.2568 23.9827 10.8994 23.9506V22.0428L10.3128 21.7038L10.3146 21.7005C9.77321 21.3864 9.3302 20.9272 9.03531 20.3746L10.5631 21.2578C11.2139 21.634 11.9871 21.7359 12.7129 21.5412C13.4387 21.3465 14.0577 20.871 14.4335 20.2194L17.9387 14.1398C18.3144 13.4881 18.4163 12.7137 18.2218 11.987C18.0274 11.2602 17.5525 10.6405 16.9017 10.2643L11.7896 7.30888L10.1536 6.36294L8.86952 5.62062L8.5394 5.42976C8.41392 5.35722 8.30416 5.26013 8.21693 5.14427C8.12971 5.02842 8.06658 4.89617 8.03147 4.7554C7.99636 4.61464 7.98994 4.46825 8.01252 4.32493C8.0351 4.18162 8.08632 4.04432 8.16301 3.92122L8.18122 3.89664C8.9524 2.84682 9.98625 2.01928 11.1789 1.49757L11.4267 1.38927L11.1232 1.37399C10.0978 1.32231 9.07304 1.4849 8.11382 1.85141C7.1546 2.21793 6.2819 2.78036 5.55156 3.5029L5.40362 3.64935C5.09368 3.95599 4.85872 4.33011 4.71678 4.7426C4.57485 5.15509 4.52971 5.59481 4.58525 6.02753C4.64079 6.46025 4.79558 6.8743 5.03707 7.23745C5.27855 7.60059 5.6002 7.90303 5.97751 8.12122L7.06333 8.74907L4.38812 13.3889H0.080526C0.0272018 12.9279 0.000211049 12.4641 0 12C0 8.8174 1.26254 5.76515 3.50999 3.51471C5.75743 1.26428 8.8058 0 11.9842 0C13.5579 9.81269e-07 15.1162 0.310393 16.5701 0.91345C18.0241 1.51651 19.3452 2.40042 20.458 3.51472C21.5708 4.62903 22.4537 5.95189 23.0559 7.4078C23.6582 8.86371 23.968 10.4241 23.968 12V12ZM22.5808 13.3646C22.8617 12.3363 22.9176 11.2594 22.7448 10.2075C22.5719 9.15558 22.1746 8.15341 21.5795 7.26944L21.4819 7.12456L21.5048 7.30315C21.6738 8.62669 21.4824 9.97137 20.9513 11.1951L20.928 11.2493C20.8601 11.3777 20.767 11.4911 20.6544 11.5827C20.5417 11.6743 20.4116 11.7422 20.2722 11.7824C20.1327 11.8225 19.9866 11.8341 19.8426 11.8165C19.6985 11.7988 19.5594 11.7523 19.4337 11.6796L18.4383 11.1041C18.7037 11.6045 18.8375 12.1643 18.8274 12.7308C18.8173 13.2972 18.6634 13.8519 18.3803 14.3424L17.9908 15.0183L18.3862 15.247C18.7612 15.4638 19.1809 15.5916 19.613 15.6205C20.0451 15.6495 20.4783 15.5788 20.8788 15.4139C21.2794 15.249 21.6367 14.9942 21.9235 14.6693C22.2103 14.3444 22.4188 13.958 22.5331 13.5397L22.5808 13.3646Z" fill="#FF6900"/>
<path d="M21.5794 7.26947L21.4818 7.12457L21.5047 7.30316C21.6737 8.6267 21.4823 9.97139 20.9512 11.1951L20.9279 11.2493C20.86 11.3778 20.7669 11.4911 20.6543 11.5827C20.5416 11.6743 20.4115 11.7422 20.2721 11.7824C20.1326 11.8225 19.9865 11.8341 19.8425 11.8165C19.6984 11.7988 19.5593 11.7523 19.4336 11.6797L18.4382 11.1041C18.7036 11.6045 18.8374 12.1643 18.8273 12.7308C18.8172 13.2973 18.6633 13.8519 18.3802 14.3425L17.9907 15.0183L18.3861 15.247C18.7611 15.4638 19.1808 15.5916 19.6129 15.6205C20.045 15.6495 20.4782 15.5788 20.8787 15.4139C21.2793 15.249 21.6366 14.9943 21.9234 14.6693C22.2102 14.3444 22.4187 13.958 22.533 13.5397L22.5807 13.3646C22.8616 12.3363 22.9175 11.2594 22.7447 10.2075C22.5718 9.1556 22.1745 8.15344 21.5794 7.26947Z" fill="white"/>
<path d="M10.899 22.0425L10.3124 21.7035L10.3142 21.7003C9.77277 21.3862 9.32975 20.9269 9.03487 20.3743L10.5627 21.2576C11.2134 21.6338 11.9866 21.7357 12.7125 21.541C13.4383 21.3462 14.0573 20.8707 14.433 20.2191L17.9383 14.1395C18.314 13.4879 18.4159 12.7135 18.2214 11.9867C18.0269 11.2599 17.552 10.6403 16.9013 10.264L11.7892 7.30864L10.1531 6.36269L8.86908 5.62038L8.53896 5.42952C8.41348 5.35697 8.30371 5.25988 8.21649 5.14403C8.12927 5.02817 8.06613 4.89593 8.03103 4.75516C7.99592 4.6144 7.9895 4.468 8.01208 4.32469C8.03466 4.18137 8.08588 4.04408 8.16256 3.92098L8.18078 3.89639C8.95196 2.84658 9.98581 2.01904 11.1785 1.49733L11.4262 1.38903L11.1227 1.37375C10.0973 1.32207 9.07259 1.48465 8.11337 1.85117C7.15415 2.21769 6.28146 2.78011 5.55111 3.50266L5.40318 3.64911C5.09324 3.95574 4.85827 4.32987 4.71634 4.74236C4.57441 5.15484 4.52926 5.59456 4.5848 6.02729C4.64034 6.46001 4.79514 6.87406 5.03662 7.23721C5.27811 7.60035 5.59976 7.90279 5.97707 8.12098L7.06289 8.74883L4.38768 13.3887H0.0800781C0.39584 16.1231 1.64347 18.6649 3.61266 20.5856V20.5858C5.58124 22.5151 8.15547 23.7037 10.899 23.9503V23.3837V22.0425ZM8.34366 12.7191C8.34367 12.2543 8.52807 11.8085 8.85633 11.4798C9.18459 11.1511 9.62988 10.9665 10.0941 10.9665C10.5583 10.9665 11.0036 11.1511 11.3319 11.4798C11.6601 11.8085 11.8445 12.2543 11.8445 12.7191C11.8445 12.9493 11.7991 13.1772 11.7112 13.3899C11.6232 13.6025 11.4944 13.7957 11.3319 13.9585C11.1693 14.1212 10.9762 14.2503 10.7638 14.3384C10.5514 14.4265 10.324 14.4718 10.0941 14.4718C9.62988 14.4718 9.18459 14.2871 8.85633 13.9585C8.52807 13.6298 8.34367 13.184 8.34366 12.7191Z" fill="white"/>
</g>
<defs>
<clipPath id="clip0_640_1636">
<rect width="111" height="24" fill="white"/>
</clipPath>
</defs>
</svg>
